<?xml version="1.0" encoding="UTF-8"?>
<svg version="1.1" xmlns="http://www.w3.org/2000/svg" width="300" height="300">
<path d="M0 0 C-0.44040705 2.56904115 -0.91272148 4.80907824 -2 7.1875 C-4.97817832 15.56362653 -4.39856429 24.18735025 -1.03125 32.34765625 C1.97427508 38.26732219 6.15697625 42.53332574 11 47 C22.07803032 57.5376386 28.92015186 69.52217662 30 85 C30.29657581 101.06743051 25.663662 114.88035578 14.55078125 126.578125 C12.9602124 128.16619688 11.35226126 129.73716752 9.72265625 131.28515625 C9.15417969 131.85105469 8.58570313 132.41695312 8 133 C8 133.33 8 133.66 8 134 C27.54513262 130.04938809 44.93039863 122.1770428 56.6328125 105.28125 C67.58357733 87.00911668 71.60253998 68.71309824 66.96875 47.66796875 C64.18981317 37.14610712 59.25935067 28.75998456 53 20 C53.66 19.34 54.32 18.68 55 18 C73.21584231 33.65761065 84.78366225 52.1859847 89 76 C90.66493353 101.40114447 86.62701838 124.99174094 70 145 C69.2884375 145.86238281 68.576875 146.72476563 67.84375 147.61328125 C53.03950943 164.78932797 31.96021642 176.45989132 9.13330078 178.22119141 C-18.36396183 179.27964459 -41.69646738 173.13259924 -62.625 154.375 C-73.62670525 144.09891486 -80.92289389 132.11192906 -86 118 C-86.43441406 116.7934375 -86.86882812 115.586875 -87.31640625 114.34375 C-94.4085575 90.81856537 -90.45037854 65.39320211 -79 44 C-75.11216531 37.61637312 -70.28957615 32.04684244 -65.3125 26.5 C-64.86100586 25.99500977 -64.40951172 25.49001953 -63.94433594 24.96972656 C-61.21967639 22.0251752 -58.53843205 19.88716376 -55 18 C-54.505 18.99 -54.505 18.99 -54 20 C-55.31709338 22.14862238 -56.68173818 24.18879387 -58.125 26.25 C-68.64187591 41.94278461 -72.14496112 59.94425059 -68.8125 78.5 C-64.80580003 96.76309755 -55.3302683 112.33477778 -39.625 122.8125 C-27.32288541 130.1557566 -14.21927004 133.79497712 0 135 C3.74637845 120.50130375 3.54507211 110.90191448 -3.75 97.875 C-6.18739922 94.76054544 -8.85230125 92.45171195 -11.8515625 89.8984375 C-21.03319334 81.78521461 -28.21430252 71.34363383 -30 59 C-30.144375 58.07058594 -30.28875 57.14117187 -30.4375 56.18359375 C-32.16227014 41.54101393 -29.00417142 26.98166972 -19.85546875 15.25 C-6.5344122 0 -6.5344122 0 0 0 Z " fill="#E42928" transform="translate(151,60)"/>
</svg>
